<svg version="1.1" id="Layer_1" xmlns="http://www.w3.org/2000/svg" xmlns:xlink="http://www.w3.org/1999/xlink" x="0px" y="0px"
	 width="100%" viewBox="0 0 736 400" enable-background="new 0 0 736 400" xml:space="preserve">
<path fill="white" opacity="1.000000" stroke="none" 
	d="
M325.468658,401.000000 
	C321.738403,398.711731 317.740540,398.835236 314.124023,397.702698 
	C257.151123,379.861023 215.565521,344.304535 189.869949,290.252930 
	C175.220932,259.438202 169.351273,226.797440 172.088791,193.132629 
	C176.724884,136.120163 201.293259,88.985016 246.019775,52.800343 
	C273.598450,30.488615 305.065918,16.413902 340.072113,11.647387 
	C395.743591,4.067049 446.638824,16.621813 491.291382,51.464306 
	C531.205200,82.609116 555.593079,123.500854 564.606873,173.126465 
	C569.398438,199.506302 568.703857,226.098480 562.368286,252.397675 
	C550.552063,301.447479 523.927429,340.481689 482.972900,369.679840 
	C463.132080,383.825226 441.280914,393.920013 417.454041,399.493591 
	C416.159821,399.796326 414.896271,400.230164 413.309204,400.801483 
	C383.979095,401.000000 354.958221,401.000000 325.468658,401.000000 
M323.361267,247.103226 
	C308.283539,220.825623 293.177704,194.564041 278.168182,168.247513 
	C276.530243,165.375687 274.389984,163.366379 271.542053,161.741013 
	C252.748352,151.015167 234.024979,140.166153 215.258102,129.393173 
	C213.917877,128.623825 212.651215,127.262444 210.201218,128.316147 
	C259.774445,214.152939 309.259583,299.837189 358.744720,385.521454 
	C359.783264,361.961945 359.749329,338.826172 359.821625,315.690674 
	C359.831879,312.410797 359.050629,309.572968 357.405762,306.717285 
	C346.106140,287.100159 334.934174,267.409515 323.361267,247.103226 
M495.500000,109.184959 
	C404.646301,109.184959 313.792603,109.184959 222.572128,109.184959 
	C223.093887,109.981148 223.201569,110.341133 223.438553,110.479248 
	C243.431000,122.131737 263.444427,133.748322 283.419250,145.430878 
	C285.551300,146.677841 287.751862,146.931732 290.117859,146.930862 
	C343.583160,146.911301 397.048492,146.896561 450.513733,146.952240 
	C453.801025,146.955673 456.672180,146.206070 459.503479,144.554459 
	C475.034546,135.494492 490.624542,126.535538 506.190582,117.535507 
	C510.554626,115.012291 514.906128,112.467468 520.547729,109.185356 
	C511.470306,109.185356 503.985168,109.185356 495.500000,109.184959 
M485.659180,203.229004 
	C499.831696,178.654861 514.004211,154.080719 528.339355,129.224548 
	C527.508911,129.338409 527.142395,129.291794 526.885071,129.437744 
	C507.191315,140.606567 487.514496,151.805237 467.810791,162.956512 
	C465.058380,164.514221 463.467316,166.952118 461.952301,169.581421 
	C435.609009,215.300598 409.248505,261.009857 382.846680,306.695282 
	C381.044830,309.813202 380.121948,312.979065 380.136871,316.624939 
	C380.222900,337.613159 380.152008,358.602020 380.157440,379.590668 
	C380.157806,381.103424 380.342010,382.616150 380.511566,385.213806 
	C415.845612,324.062378 450.570984,263.964355 485.659180,203.229004 
M339.281555,220.285782 
	C349.182831,238.142242 359.084106,255.998703 369.456604,274.705078 
	C388.715668,241.295990 407.459625,208.780472 426.551758,175.660950 
	C388.888245,175.660950 352.128571,175.660950 314.509735,175.660950 
	C322.927887,190.846054 330.913696,205.251251 339.281555,220.285782 
M378.499817,92.621033 
	C384.828186,92.616707 391.157562,92.544456 397.484375,92.641304 
	C400.033905,92.680336 401.516113,91.762405 402.193207,89.237686 
	C407.190430,70.604683 412.220581,51.980392 417.304504,33.370880 
	C418.087494,30.504784 417.258698,28.907696 414.333771,28.298887 
	C409.459320,27.284286 404.642212,25.912949 399.727814,25.186604 
	C384.253387,22.899477 368.725800,21.357929 353.070923,23.337778 
	C343.679993,24.525434 334.267120,25.564812 325.128571,28.219959 
	C322.390472,29.015505 320.815887,30.011505 321.768951,33.473038 
	C326.710236,51.419724 331.539246,69.399506 336.144684,87.434837 
	C337.230530,91.686974 339.370544,92.815666 343.528748,92.718048 
	C354.846985,92.452339 366.175446,92.623024 378.499817,92.621033 
M284.386932,294.935364 
	C286.800873,292.376373 284.735107,290.223907 283.572113,288.202759 
	C274.779694,272.922760 265.781555,257.760071 257.109253,242.412903 
	C255.235474,239.096909 253.305908,238.679291 249.912552,239.613190 
	C233.405685,244.156021 216.831680,248.454468 200.297089,252.897552 
	C197.442764,253.664566 194.460007,254.171021 191.792465,256.018707 
	C192.000763,257.166595 192.103775,258.325073 192.425232,259.419373 
	C200.877670,288.193420 215.555496,313.348358 236.123764,335.167542 
	C239.396729,338.639526 241.368042,338.223511 244.464752,335.056824 
	C257.492340,321.734924 270.743500,308.631622 284.386932,294.935364 
M509.457397,243.173126 
	C503.039886,241.416321 496.569519,239.827911 490.225525,237.836868 
	C486.660919,236.718109 484.686035,237.794250 482.922150,240.893280 
	C474.194092,256.228088 465.418396,271.537964 456.432007,286.721985 
	C454.333466,290.267761 454.832428,292.559540 457.658752,295.339722 
	C470.713593,308.181458 483.661041,321.134247 496.507019,334.185028 
	C499.218567,336.939789 501.177460,337.157867 503.865417,334.246094 
	C523.721130,312.737030 538.313843,288.214539 546.608215,260.063568 
	C548.494446,253.661758 548.309143,253.379791 541.615479,251.587906 
	C531.174927,248.793015 520.709778,246.089951 509.457397,243.173126 
M193.433762,228.718628 
	C209.266220,224.463837 225.098663,220.209045 241.665741,215.756836 
	C226.983429,190.338409 212.732941,165.667572 197.809143,139.831055 
	C186.103470,169.963455 182.622299,199.526123 186.349625,230.110779 
	C187.695923,230.110779 188.038681,230.179672 188.341690,230.099091 
	C189.788132,229.714355 191.223785,229.289062 193.433762,228.718628 
M398.285461,389.124023 
	C399.186859,389.904510 400.156281,389.471405 401.122559,389.300690 
	C426.209259,384.868347 449.466949,375.794708 470.734375,361.741028 
	C474.129974,359.497223 477.844543,357.566010 479.883698,354.902832 
	C466.574371,341.405365 453.581329,328.228668 440.343170,314.803345 
	C433.448395,326.705688 426.561615,338.479340 419.788330,350.317902 
	C412.516968,363.027100 405.352264,375.797333 398.285461,389.124023 
M460.748291,46.807831 
	C456.466125,44.577488 452.136536,42.432667 447.915588,40.091911 
	C443.978973,37.908787 441.690796,38.400364 440.519623,43.235802 
	C438.131409,53.095936 435.336212,62.857208 432.733795,72.665863 
	C431.045685,79.028412 429.401978,85.402733 427.648621,92.115433 
	C456.540527,92.115433 484.649597,92.115433 513.597717,92.115433 
	C498.672485,73.272934 481.252930,58.806427 460.748291,46.807831 
M233.784805,82.284721 
	C231.581635,85.539940 228.163147,87.900696 226.359146,92.198936 
	C254.772812,92.198936 282.745026,92.198936 311.073486,92.198936 
	C310.864014,90.615929 310.837250,89.457726 310.547638,88.369461 
	C306.572174,73.431740 302.591980,58.495102 298.541931,43.577480 
	C296.945526,37.697552 296.640869,37.589317 291.144501,40.183701 
	C269.517853,50.391884 250.586136,64.295639 233.784805,82.284721 
M552.757385,184.634277 
	C551.138916,169.593811 547.432251,155.112991 541.269348,140.078247 
	C526.769165,165.141541 512.839417,189.218826 499.059845,213.036591 
	C499.856812,213.978256 500.024567,214.382187 500.283295,214.452789 
	C516.801697,218.960175 533.326660,223.443573 549.853394,227.920563 
	C553.192322,228.825073 553.395752,226.396622 553.620483,224.210403 
	C554.949768,211.280853 555.168213,198.369339 552.757385,184.634277 
M287.716431,327.216614 
	C278.478699,336.495331 269.240936,345.774048 259.593445,355.464294 
	C284.291992,373.964661 311.084656,384.985596 342.151062,390.061798 
	C327.509247,364.601471 313.594299,340.405060 298.892456,314.840393 
	C294.660339,319.544586 291.436249,323.128326 287.716431,327.216614 
z"/>
</svg>